<mxfile host="65bd71144e">
    <diagram id="sG-VGHVqKegsN6xib9O2" name="arq">
        <mxGraphModel dx="1746" dy="508" grid="1" gridSize="10" guides="1" tooltips="1" connect="1" arrows="1" fold="1" page="1" pageScale="1" pageWidth="827" pageHeight="1169" math="0" shadow="0">
            <root>
                <mxCell id="0"/>
                <mxCell id="1" parent="0"/>
                <mxCell id="MkSN0cLBnFIMcYAqWLB_-1" value="Pedidos" style="rounded=1;whiteSpace=wrap;html=1;fillColor=#eeeeee;strokeColor=#36393d;" parent="1" vertex="1">
                    <mxGeometry x="40" y="220" width="120" height="60" as="geometry"/>
                </mxCell>
                <mxCell id="MkSN0cLBnFIMcYAqWLB_-2" value="Pizzas" style="rounded=1;whiteSpace=wrap;html=1;fillColor=#f9f7ed;strokeColor=#36393d;" parent="1" vertex="1">
                    <mxGeometry x="320" y="220" width="120" height="60" as="geometry"/>
                </mxCell>
                <mxCell id="-paZeTlL0PDKkp2HQcAz-2" style="edgeStyle=none;html=1;" parent="1" source="MkSN0cLBnFIMcYAqWLB_-3" target="-paZeTlL0PDKkp2HQcAz-1" edge="1">
                    <mxGeometry relative="1" as="geometry">
                        <Array as="points">
                            <mxPoint x="240" y="430"/>
                            <mxPoint x="300" y="430"/>
                        </Array>
                    </mxGeometry>
                </mxCell>
                <mxCell id="MkSN0cLBnFIMcYAqWLB_-3" value="Notificacoes" style="rounded=1;whiteSpace=wrap;html=1;fillColor=#cce5ff;strokeColor=#36393d;" parent="1" vertex="1">
                    <mxGeometry x="180" y="340" width="120" height="60" as="geometry"/>
                </mxCell>
                <mxCell id="MkSN0cLBnFIMcYAqWLB_-4" value="" style="endArrow=classic;html=1;entryX=0.5;entryY=0;entryDx=0;entryDy=0;" parent="1" source="MkSN0cLBnFIMcYAqWLB_-1" target="MkSN0cLBnFIMcYAqWLB_-3" edge="1">
                    <mxGeometry width="50" height="50" relative="1" as="geometry">
                        <mxPoint x="390" y="430" as="sourcePoint"/>
                        <mxPoint x="440" y="380" as="targetPoint"/>
                        <Array as="points">
                            <mxPoint x="100" y="320"/>
                            <mxPoint x="230" y="320"/>
                        </Array>
                    </mxGeometry>
                </mxCell>
                <mxCell id="MkSN0cLBnFIMcYAqWLB_-5" value="" style="endArrow=classic;startArrow=classic;html=1;" parent="1" source="MkSN0cLBnFIMcYAqWLB_-1" target="MkSN0cLBnFIMcYAqWLB_-2" edge="1">
                    <mxGeometry width="50" height="50" relative="1" as="geometry">
                        <mxPoint x="280" y="440" as="sourcePoint"/>
                        <mxPoint x="330" y="390" as="targetPoint"/>
                    </mxGeometry>
                </mxCell>
                <mxCell id="MkSN0cLBnFIMcYAqWLB_-6" value="DB&lt;div&gt;Pedidos&lt;/div&gt;" style="shape=cylinder3;whiteSpace=wrap;html=1;boundedLbl=1;backgroundOutline=1;size=15;fillColor=#cdeb8b;strokeColor=#36393d;" parent="1" vertex="1">
                    <mxGeometry x="70" y="440" width="60" height="80" as="geometry"/>
                </mxCell>
                <mxCell id="MkSN0cLBnFIMcYAqWLB_-7" value="DB Pizzas" style="shape=cylinder3;whiteSpace=wrap;html=1;boundedLbl=1;backgroundOutline=1;size=15;fillColor=#cdeb8b;strokeColor=#36393d;" parent="1" vertex="1">
                    <mxGeometry x="350" y="440" width="60" height="80" as="geometry"/>
                </mxCell>
                <mxCell id="MkSN0cLBnFIMcYAqWLB_-8" value="SMTP&lt;div&gt;Email&lt;/div&gt;" style="shape=process;whiteSpace=wrap;html=1;backgroundOutline=1;fillColor=#ffe6cc;strokeColor=#d79b00;" parent="1" vertex="1">
                    <mxGeometry x="150" y="470" width="90" height="40" as="geometry"/>
                </mxCell>
                <mxCell id="MkSN0cLBnFIMcYAqWLB_-9" value="" style="endArrow=classic;html=1;" parent="1" source="MkSN0cLBnFIMcYAqWLB_-2" target="MkSN0cLBnFIMcYAqWLB_-7" edge="1">
                    <mxGeometry width="50" height="50" relative="1" as="geometry">
                        <mxPoint x="430" y="420" as="sourcePoint"/>
                        <mxPoint x="480" y="370" as="targetPoint"/>
                    </mxGeometry>
                </mxCell>
                <mxCell id="MkSN0cLBnFIMcYAqWLB_-10" value="" style="endArrow=classic;html=1;" parent="1" source="MkSN0cLBnFIMcYAqWLB_-3" target="MkSN0cLBnFIMcYAqWLB_-8" edge="1">
                    <mxGeometry width="50" height="50" relative="1" as="geometry">
                        <mxPoint x="390" y="430" as="sourcePoint"/>
                        <mxPoint x="440" y="380" as="targetPoint"/>
                        <Array as="points">
                            <mxPoint x="240" y="430"/>
                            <mxPoint x="195" y="430"/>
                        </Array>
                    </mxGeometry>
                </mxCell>
                <mxCell id="MkSN0cLBnFIMcYAqWLB_-11" value="" style="endArrow=classic;html=1;" parent="1" source="MkSN0cLBnFIMcYAqWLB_-1" target="MkSN0cLBnFIMcYAqWLB_-6" edge="1">
                    <mxGeometry width="50" height="50" relative="1" as="geometry">
                        <mxPoint x="30" y="430" as="sourcePoint"/>
                        <mxPoint x="80" y="380" as="targetPoint"/>
                    </mxGeometry>
                </mxCell>
                <mxCell id="-paZeTlL0PDKkp2HQcAz-1" value="DB&lt;div&gt;Notificacoes&lt;/div&gt;" style="shape=cylinder3;whiteSpace=wrap;html=1;boundedLbl=1;backgroundOutline=1;size=15;fillColor=#cdeb8b;strokeColor=#36393d;" parent="1" vertex="1">
                    <mxGeometry x="270" y="440" width="60" height="80" as="geometry"/>
                </mxCell>
                <mxCell id="-paZeTlL0PDKkp2HQcAz-4" value="API Gateway" style="rounded=0;whiteSpace=wrap;html=1;" parent="1" vertex="1">
                    <mxGeometry x="40" y="140" width="400" height="30" as="geometry"/>
                </mxCell>
                <mxCell id="-paZeTlL0PDKkp2HQcAz-8" value="" style="endArrow=classic;startArrow=classic;html=1;" parent="1" source="MkSN0cLBnFIMcYAqWLB_-2" target="-paZeTlL0PDKkp2HQcAz-4" edge="1">
                    <mxGeometry width="50" height="50" relative="1" as="geometry">
                        <mxPoint x="560" y="220" as="sourcePoint"/>
                        <mxPoint x="610" y="170" as="targetPoint"/>
                        <Array as="points">
                            <mxPoint x="380" y="200"/>
                            <mxPoint x="240" y="200"/>
                        </Array>
                    </mxGeometry>
                </mxCell>
                <mxCell id="-paZeTlL0PDKkp2HQcAz-9" value="" style="endArrow=classic;startArrow=classic;html=1;" parent="1" source="MkSN0cLBnFIMcYAqWLB_-1" target="-paZeTlL0PDKkp2HQcAz-4" edge="1">
                    <mxGeometry width="50" height="50" relative="1" as="geometry">
                        <mxPoint x="250" y="140" as="sourcePoint"/>
                        <mxPoint x="300" y="90" as="targetPoint"/>
                        <Array as="points">
                            <mxPoint x="110" y="200"/>
                            <mxPoint x="240" y="200"/>
                        </Array>
                    </mxGeometry>
                </mxCell>
                <mxCell id="-paZeTlL0PDKkp2HQcAz-10" value="" style="endArrow=classic;startArrow=classic;html=1;" parent="1" source="MkSN0cLBnFIMcYAqWLB_-3" target="-paZeTlL0PDKkp2HQcAz-4" edge="1">
                    <mxGeometry width="50" height="50" relative="1" as="geometry">
                        <mxPoint x="320" y="350" as="sourcePoint"/>
                        <mxPoint x="370" y="300" as="targetPoint"/>
                    </mxGeometry>
                </mxCell>
                <mxCell id="-paZeTlL0PDKkp2HQcAz-11" value="Service Registry" style="rounded=0;whiteSpace=wrap;html=1;horizontal=0;rotation=-180;fillColor=#bac8d3;strokeColor=#23445d;" parent="1" vertex="1">
                    <mxGeometry x="480" y="140" width="50" height="300" as="geometry"/>
                </mxCell>
            </root>
        </mxGraphModel>
    </diagram>
    <diagram id="rslnSPB6wSEo95CvpbfX" name="fluxo">
        <mxGraphModel dx="1746" dy="508" grid="1" gridSize="10" guides="1" tooltips="1" connect="1" arrows="1" fold="1" page="1" pageScale="1" pageWidth="827" pageHeight="1169" math="0" shadow="0">
            <root>
                <mxCell id="0"/>
                <mxCell id="1" parent="0"/>
                <mxCell id="24" value="" style="edgeStyle=none;html=1;" parent="1" source="19" target="23" edge="1">
                    <mxGeometry relative="1" as="geometry"/>
                </mxCell>
                <mxCell id="19" value="Pedido Enviado" style="rounded=1;whiteSpace=wrap;html=1;fillColor=#e1d5e7;strokeColor=#9673a6;" parent="1" vertex="1">
                    <mxGeometry x="40" y="40" width="120" height="60" as="geometry"/>
                </mxCell>
                <mxCell id="26" value="" style="edgeStyle=none;html=1;" parent="1" source="23" target="25" edge="1">
                    <mxGeometry relative="1" as="geometry"/>
                </mxCell>
                <mxCell id="27" value="tem" style="edgeLabel;html=1;align=center;verticalAlign=middle;resizable=0;points=[];" parent="26" vertex="1" connectable="0">
                    <mxGeometry x="-0.3667" y="1" relative="1" as="geometry">
                        <mxPoint as="offset"/>
                    </mxGeometry>
                </mxCell>
                <mxCell id="29" value="" style="edgeStyle=none;html=1;exitX=0.5;exitY=1;exitDx=0;exitDy=0;" parent="1" source="23" target="28" edge="1">
                    <mxGeometry relative="1" as="geometry">
                        <Array as="points">
                            <mxPoint x="300" y="160"/>
                        </Array>
                    </mxGeometry>
                </mxCell>
                <mxCell id="30" value="não&lt;div&gt;tem&lt;/div&gt;" style="edgeLabel;html=1;align=center;verticalAlign=middle;resizable=0;points=[];" parent="29" vertex="1" connectable="0">
                    <mxGeometry x="-0.8105" y="-2" relative="1" as="geometry">
                        <mxPoint as="offset"/>
                    </mxGeometry>
                </mxCell>
                <mxCell id="23" value="Verificar&lt;div&gt;Estoque&lt;/div&gt;" style="rhombus;whiteSpace=wrap;html=1;rounded=1;fillColor=#fff2cc;strokeColor=#d6b656;" parent="1" vertex="1">
                    <mxGeometry x="260" y="30" width="80" height="80" as="geometry"/>
                </mxCell>
                <mxCell id="35" value="" style="edgeStyle=none;html=1;" parent="1" source="25" target="34" edge="1">
                    <mxGeometry relative="1" as="geometry"/>
                </mxCell>
                <mxCell id="36" style="edgeStyle=none;html=1;" parent="1" source="25" target="31" edge="1">
                    <mxGeometry relative="1" as="geometry"/>
                </mxCell>
                <mxCell id="1OzRidHysALoCxNX0EEr-51" style="edgeStyle=none;html=1;" parent="1" source="25" target="1OzRidHysALoCxNX0EEr-49" edge="1">
                    <mxGeometry relative="1" as="geometry">
                        <Array as="points">
                            <mxPoint x="460" y="170"/>
                            <mxPoint x="300" y="170"/>
                        </Array>
                    </mxGeometry>
                </mxCell>
                <mxCell id="25" value="Pedido Recebido" style="whiteSpace=wrap;html=1;rounded=1;fillColor=#d5e8d4;strokeColor=#82b366;" parent="1" vertex="1">
                    <mxGeometry x="400" y="40" width="120" height="60" as="geometry"/>
                </mxCell>
                <mxCell id="28" value="Pedido Recusado" style="whiteSpace=wrap;html=1;rounded=1;fillColor=#e1d5e7;strokeColor=#9673a6;" parent="1" vertex="1">
                    <mxGeometry x="40" y="130" width="120" height="60" as="geometry"/>
                </mxCell>
                <mxCell id="38" value="" style="edgeStyle=none;html=1;" parent="1" source="31" target="37" edge="1">
                    <mxGeometry relative="1" as="geometry"/>
                </mxCell>
                <mxCell id="31" value="Solicita Preparação" style="rounded=1;whiteSpace=wrap;html=1;fillColor=#f8cecc;strokeColor=#b85450;" parent="1" vertex="1">
                    <mxGeometry x="400" y="230" width="120" height="60" as="geometry"/>
                </mxCell>
                <mxCell id="34" value="Atualiza Estoque" style="rounded=1;whiteSpace=wrap;html=1;fillColor=#f8cecc;strokeColor=#b85450;" parent="1" vertex="1">
                    <mxGeometry x="600" y="40" width="120" height="60" as="geometry"/>
                </mxCell>
                <mxCell id="41" value="" style="edgeStyle=none;html=1;" parent="1" source="37" target="40" edge="1">
                    <mxGeometry relative="1" as="geometry"/>
                </mxCell>
                <mxCell id="42" value="Sim" style="edgeLabel;html=1;align=center;verticalAlign=middle;resizable=0;points=[];" parent="41" vertex="1" connectable="0">
                    <mxGeometry x="-0.2" y="-1" relative="1" as="geometry">
                        <mxPoint as="offset"/>
                    </mxGeometry>
                </mxCell>
                <mxCell id="45" value="" style="edgeStyle=none;html=1;" parent="1" source="37" target="44" edge="1">
                    <mxGeometry relative="1" as="geometry"/>
                </mxCell>
                <mxCell id="37" value="É o mais&lt;div&gt;antigo?&lt;/div&gt;" style="rhombus;whiteSpace=wrap;html=1;rounded=1;fillColor=#fff2cc;strokeColor=#d6b656;" parent="1" vertex="1">
                    <mxGeometry x="420" y="330" width="80" height="80" as="geometry"/>
                </mxCell>
                <mxCell id="48" value="" style="edgeStyle=none;html=1;dashed=1;" parent="1" source="40" target="47" edge="1">
                    <mxGeometry relative="1" as="geometry"/>
                </mxCell>
                <mxCell id="49" value="tempo" style="edgeLabel;html=1;align=center;verticalAlign=middle;resizable=0;points=[];" parent="48" vertex="1" connectable="0">
                    <mxGeometry x="-0.05" y="1" relative="1" as="geometry">
                        <mxPoint as="offset"/>
                    </mxGeometry>
                </mxCell>
                <mxCell id="1OzRidHysALoCxNX0EEr-52" style="edgeStyle=none;html=1;" parent="1" source="40" target="1OzRidHysALoCxNX0EEr-49" edge="1">
                    <mxGeometry relative="1" as="geometry">
                        <Array as="points">
                            <mxPoint x="300" y="490"/>
                        </Array>
                    </mxGeometry>
                </mxCell>
                <mxCell id="40" value="Em Preparação" style="whiteSpace=wrap;html=1;rounded=1;fillColor=#d5e8d4;strokeColor=#82b366;" parent="1" vertex="1">
                    <mxGeometry x="400" y="460" width="120" height="60" as="geometry"/>
                </mxCell>
                <mxCell id="46" style="edgeStyle=none;html=1;" parent="1" source="44" target="31" edge="1">
                    <mxGeometry relative="1" as="geometry">
                        <Array as="points">
                            <mxPoint x="660" y="260"/>
                        </Array>
                    </mxGeometry>
                </mxCell>
                <mxCell id="44" value="Aguarda na fila" style="whiteSpace=wrap;html=1;rounded=1;fillColor=#dae8fc;strokeColor=#6c8ebf;" parent="1" vertex="1">
                    <mxGeometry x="600" y="340" width="120" height="60" as="geometry"/>
                </mxCell>
                <mxCell id="1OzRidHysALoCxNX0EEr-53" style="edgeStyle=none;html=1;" parent="1" source="47" target="1OzRidHysALoCxNX0EEr-49" edge="1">
                    <mxGeometry relative="1" as="geometry">
                        <Array as="points">
                            <mxPoint x="660" y="590"/>
                            <mxPoint x="300" y="590"/>
                        </Array>
                    </mxGeometry>
                </mxCell>
                <mxCell id="47" value="Finalizado" style="whiteSpace=wrap;html=1;rounded=1;fillColor=#d5e8d4;strokeColor=#82b366;" parent="1" vertex="1">
                    <mxGeometry x="600" y="460" width="120" height="60" as="geometry"/>
                </mxCell>
                <mxCell id="1OzRidHysALoCxNX0EEr-49" value="Notifica Cliente" style="rounded=1;whiteSpace=wrap;html=1;fillColor=#f8cecc;strokeColor=#b85450;" parent="1" vertex="1">
                    <mxGeometry x="240" y="230" width="120" height="60" as="geometry"/>
                </mxCell>
            </root>
        </mxGraphModel>
    </diagram>
    <diagram id="zcK6mI3XU0N3Re7O5R03" name="integracao">
        <mxGraphModel dx="1746" dy="508" grid="0" gridSize="10" guides="1" tooltips="1" connect="1" arrows="1" fold="1" page="1" pageScale="1" pageWidth="850" pageHeight="1100" math="0" shadow="0">
            <root>
                <mxCell id="0"/>
                <mxCell id="1" parent="0"/>
                <mxCell id="8Gm7W_Wn52clqG2oZ4ju-1" value="" style="edgeStyle=none;html=1;exitX=1;exitY=0.25;exitDx=0;exitDy=0;entryX=0;entryY=0.25;entryDx=0;entryDy=0;" parent="1" edge="1">
                    <mxGeometry relative="1" as="geometry">
                        <mxPoint x="160" y="150" as="sourcePoint"/>
                        <mxPoint x="414" y="150" as="targetPoint"/>
                        <Array as="points">
                            <mxPoint x="290" y="150"/>
                        </Array>
                    </mxGeometry>
                </mxCell>
                <mxCell id="8Gm7W_Wn52clqG2oZ4ju-2" value="tem em&lt;div&gt;estoque?&lt;/div&gt;" style="edgeLabel;html=1;align=center;verticalAlign=middle;resizable=0;points=[];" parent="8Gm7W_Wn52clqG2oZ4ju-1" vertex="1" connectable="0">
                    <mxGeometry x="-0.8" y="-1" relative="1" as="geometry">
                        <mxPoint x="11" y="-4" as="offset"/>
                    </mxGeometry>
                </mxCell>
                <mxCell id="UpuvbQ3yzR6A4KvugJHx-1" value="&lt;span style=&quot;color: rgb(63, 63, 63); font-size: 12px; text-wrap-mode: wrap; background-color: rgb(251, 251, 251);&quot;&gt;GET /estoque/pizza/:id&lt;/span&gt;" style="edgeLabel;html=1;align=center;verticalAlign=middle;resizable=0;points=[];" parent="8Gm7W_Wn52clqG2oZ4ju-1" vertex="1" connectable="0">
                    <mxGeometry x="0.5512" y="1" relative="1" as="geometry">
                        <mxPoint x="-5" as="offset"/>
                    </mxGeometry>
                </mxCell>
                <mxCell id="8Gm7W_Wn52clqG2oZ4ju-3" value="PedidoService&lt;div&gt;POST /pedido&lt;/div&gt;" style="rounded=1;whiteSpace=wrap;html=1;fillColor=#d5e8d4;strokeColor=#82b366;" parent="1" vertex="1">
                    <mxGeometry x="40" y="120" width="120" height="200" as="geometry"/>
                </mxCell>
                <mxCell id="8Gm7W_Wn52clqG2oZ4ju-4" style="edgeStyle=none;html=1;exitX=0;exitY=0.75;exitDx=0;exitDy=0;entryX=1;entryY=0.75;entryDx=0;entryDy=0;" parent="1" edge="1">
                    <mxGeometry relative="1" as="geometry">
                        <mxPoint x="414" y="170" as="sourcePoint"/>
                        <mxPoint x="160" y="170" as="targetPoint"/>
                    </mxGeometry>
                </mxCell>
                <mxCell id="8Gm7W_Wn52clqG2oZ4ju-5" value="200 OK" style="edgeLabel;html=1;align=center;verticalAlign=middle;resizable=0;points=[];" parent="8Gm7W_Wn52clqG2oZ4ju-4" vertex="1" connectable="0">
                    <mxGeometry x="-0.15" y="5" relative="1" as="geometry">
                        <mxPoint x="-16" y="-5" as="offset"/>
                    </mxGeometry>
                </mxCell>
                <mxCell id="8Gm7W_Wn52clqG2oZ4ju-6" value="PizzaService" style="rounded=1;whiteSpace=wrap;html=1;fillColor=#ffe6cc;strokeColor=#d79b00;" parent="1" vertex="1">
                    <mxGeometry x="414" y="120" width="120" height="200" as="geometry"/>
                </mxCell>
                <mxCell id="UpuvbQ3yzR6A4KvugJHx-2" value="" style="edgeStyle=none;html=1;exitX=1;exitY=0.25;exitDx=0;exitDy=0;entryX=0;entryY=0.25;entryDx=0;entryDy=0;" parent="1" edge="1">
                    <mxGeometry relative="1" as="geometry">
                        <mxPoint x="160" y="240" as="sourcePoint"/>
                        <mxPoint x="414" y="240" as="targetPoint"/>
                        <Array as="points">
                            <mxPoint x="290" y="240"/>
                        </Array>
                    </mxGeometry>
                </mxCell>
                <mxCell id="UpuvbQ3yzR6A4KvugJHx-3" value="atualizar&lt;div&gt;estoque&lt;/div&gt;" style="edgeLabel;html=1;align=center;verticalAlign=middle;resizable=0;points=[];" parent="UpuvbQ3yzR6A4KvugJHx-2" vertex="1" connectable="0">
                    <mxGeometry x="-0.8" y="-1" relative="1" as="geometry">
                        <mxPoint x="11" y="-4" as="offset"/>
                    </mxGeometry>
                </mxCell>
                <mxCell id="UpuvbQ3yzR6A4KvugJHx-4" value="&lt;span style=&quot;color: rgb(63, 63, 63); font-size: 12px; text-wrap-mode: wrap; background-color: rgb(251, 251, 251);&quot;&gt;PUT /estoque/pizza/:id&lt;/span&gt;" style="edgeLabel;html=1;align=center;verticalAlign=middle;resizable=0;points=[];" parent="UpuvbQ3yzR6A4KvugJHx-2" vertex="1" connectable="0">
                    <mxGeometry x="0.5512" y="1" relative="1" as="geometry">
                        <mxPoint x="-5" as="offset"/>
                    </mxGeometry>
                </mxCell>
                <mxCell id="UpuvbQ3yzR6A4KvugJHx-5" style="edgeStyle=none;html=1;exitX=0;exitY=0.75;exitDx=0;exitDy=0;entryX=1;entryY=0.75;entryDx=0;entryDy=0;" parent="1" edge="1">
                    <mxGeometry relative="1" as="geometry">
                        <mxPoint x="414" y="260" as="sourcePoint"/>
                        <mxPoint x="160" y="260" as="targetPoint"/>
                    </mxGeometry>
                </mxCell>
                <mxCell id="UpuvbQ3yzR6A4KvugJHx-6" value="200 OK" style="edgeLabel;html=1;align=center;verticalAlign=middle;resizable=0;points=[];" parent="UpuvbQ3yzR6A4KvugJHx-5" vertex="1" connectable="0">
                    <mxGeometry x="-0.15" y="5" relative="1" as="geometry">
                        <mxPoint x="-16" y="-5" as="offset"/>
                    </mxGeometry>
                </mxCell>
            </root>
        </mxGraphModel>
    </diagram>
    <diagram id="HKFfjDV_ExRsZIaFopP-" name="loadbalance">
        <mxGraphModel dx="1746" dy="508" grid="0" gridSize="10" guides="1" tooltips="1" connect="1" arrows="1" fold="1" page="1" pageScale="1" pageWidth="850" pageHeight="1100" math="0" shadow="0">
            <root>
                <mxCell id="0"/>
                <mxCell id="1" parent="0"/>
                <mxCell id="9Wzt4NnUGyMk2VZ45Iuj-3" value="" style="edgeStyle=none;html=1;endArrow=classic;endFill=1;startArrow=classic;startFill=1;" parent="1" source="9Wzt4NnUGyMk2VZ45Iuj-1" target="9Wzt4NnUGyMk2VZ45Iuj-2" edge="1">
                    <mxGeometry relative="1" as="geometry"/>
                </mxCell>
                <mxCell id="9Wzt4NnUGyMk2VZ45Iuj-4" value="obtém o&lt;div&gt;serviço&lt;/div&gt;&lt;div&gt;PizzaService&lt;/div&gt;" style="edgeLabel;html=1;align=center;verticalAlign=middle;resizable=0;points=[];" parent="9Wzt4NnUGyMk2VZ45Iuj-3" vertex="1" connectable="0">
                    <mxGeometry x="-0.04" y="3" relative="1" as="geometry">
                        <mxPoint as="offset"/>
                    </mxGeometry>
                </mxCell>
                <mxCell id="9Wzt4NnUGyMk2VZ45Iuj-1" value="Pedidos&lt;div&gt;(cliente)&lt;/div&gt;" style="rounded=1;whiteSpace=wrap;html=1;fillColor=#ffe6cc;strokeColor=#d79b00;" parent="1" vertex="1">
                    <mxGeometry x="40" y="140" width="200" height="60" as="geometry"/>
                </mxCell>
                <mxCell id="9Wzt4NnUGyMk2VZ45Iuj-2" value="Service Registry" style="whiteSpace=wrap;html=1;rounded=1;fillColor=#fff2cc;strokeColor=#d6b656;" parent="1" vertex="1">
                    <mxGeometry x="80" y="280" width="120" height="60" as="geometry"/>
                </mxCell>
                <mxCell id="9Wzt4NnUGyMk2VZ45Iuj-13" style="edgeStyle=none;html=1;entryX=0;entryY=0.5;entryDx=0;entryDy=0;" parent="1" source="9Wzt4NnUGyMk2VZ45Iuj-6" target="9Wzt4NnUGyMk2VZ45Iuj-11" edge="1">
                    <mxGeometry relative="1" as="geometry"/>
                </mxCell>
                <mxCell id="9Wzt4NnUGyMk2VZ45Iuj-14" style="edgeStyle=none;html=1;" parent="1" source="9Wzt4NnUGyMk2VZ45Iuj-6" target="9Wzt4NnUGyMk2VZ45Iuj-8" edge="1">
                    <mxGeometry relative="1" as="geometry">
                        <Array as="points">
                            <mxPoint x="210" y="250"/>
                            <mxPoint x="290" y="250"/>
                            <mxPoint x="410" y="250"/>
                        </Array>
                    </mxGeometry>
                </mxCell>
                <mxCell id="9Wzt4NnUGyMk2VZ45Iuj-6" value="load&lt;div&gt;balancer&lt;/div&gt;" style="ellipse;whiteSpace=wrap;html=1;rounded=1;fillColor=#ffcccc;strokeColor=#36393d;" parent="1" vertex="1">
                    <mxGeometry x="180" y="140" width="60" height="60" as="geometry"/>
                </mxCell>
                <mxCell id="9Wzt4NnUGyMk2VZ45Iuj-9" style="edgeStyle=none;html=1;" parent="1" source="9Wzt4NnUGyMk2VZ45Iuj-8" target="9Wzt4NnUGyMk2VZ45Iuj-2" edge="1">
                    <mxGeometry relative="1" as="geometry"/>
                </mxCell>
                <mxCell id="9Wzt4NnUGyMk2VZ45Iuj-10" value="se registra&lt;div&gt;como serviço&lt;/div&gt;&lt;div&gt;PizzaService&lt;/div&gt;" style="edgeLabel;html=1;align=center;verticalAlign=middle;resizable=0;points=[];labelBackgroundColor=#FFFFFF;" parent="9Wzt4NnUGyMk2VZ45Iuj-9" vertex="1" connectable="0">
                    <mxGeometry x="0.1472" y="-1" relative="1" as="geometry">
                        <mxPoint x="11" y="6" as="offset"/>
                    </mxGeometry>
                </mxCell>
                <mxCell id="9Wzt4NnUGyMk2VZ45Iuj-8" value="PizzaService&lt;div&gt;&lt;span style=&quot;color: rgb(63, 63, 63); font-size: 8px;&quot;&gt;192.168.0.20&lt;/span&gt;&lt;/div&gt;" style="rounded=1;whiteSpace=wrap;html=1;fillColor=#f5f5f5;fontColor=#333333;strokeColor=#666666;" parent="1" vertex="1">
                    <mxGeometry x="350" y="280" width="120" height="60" as="geometry"/>
                </mxCell>
                <mxCell id="9Wzt4NnUGyMk2VZ45Iuj-12" style="edgeStyle=none;html=1;" parent="1" source="9Wzt4NnUGyMk2VZ45Iuj-11" target="9Wzt4NnUGyMk2VZ45Iuj-2" edge="1">
                    <mxGeometry relative="1" as="geometry">
                        <Array as="points">
                            <mxPoint x="410" y="240"/>
                            <mxPoint x="320" y="240"/>
                            <mxPoint x="320" y="310"/>
                        </Array>
                    </mxGeometry>
                </mxCell>
                <mxCell id="9Wzt4NnUGyMk2VZ45Iuj-11" value="PizzaService&lt;div&gt;&lt;font style=&quot;font-size: 8px;&quot;&gt;192.168.0.20&lt;/font&gt;&lt;/div&gt;" style="rounded=1;whiteSpace=wrap;html=1;fillColor=#f5f5f5;fontColor=#333333;strokeColor=#666666;" parent="1" vertex="1">
                    <mxGeometry x="350" y="140" width="120" height="60" as="geometry"/>
                </mxCell>
            </root>
        </mxGraphModel>
    </diagram>
</mxfile>